<?xml version="1.0" encoding="UTF-8" standalone="no"?>
<!-- Created with Inkscape (http://www.inkscape.org/) -->

<svg
   xmlns:dc="http://purl.org/dc/elements/1.1/"
   xmlns:cc="http://creativecommons.org/ns#"
   xmlns:rdf="http://www.w3.org/1999/02/22-rdf-syntax-ns#"
   xmlns:svg="http://www.w3.org/2000/svg"
   xmlns="http://www.w3.org/2000/svg"
   xmlns:sodipodi="http://sodipodi.sourceforge.net/DTD/sodipodi-0.dtd"
   xmlns:inkscape="http://www.inkscape.org/namespaces/inkscape"
   width="29.658079mm"
   height="12.510975mm"
   viewBox="0 0 29.65808 12.510975"
   version="1.1"
   id="svg3842"
   inkscape:version="0.92.4 (5da689c313, 2019-01-14)"
   sodipodi:docname="logo.svg">
  <defs
     id="defs3836">
    <clipPath
       id="clipPath3778"
       clipPathUnits="userSpaceOnUse">
      <rect
         style="stroke-width:10.35422325"
         y="549.36737"
         x="1263.6844"
         height="3217.2053"
         width="6249.5132"
         id="rect3780" />
    </clipPath>
    <clipPath
       id="clipPath3782"
       clipPathUnits="userSpaceOnUse">
      <rect
         style="stroke-width:10.35422325"
         y="549.36737"
         x="1263.6844"
         height="3217.2053"
         width="6249.5132"
         id="rect3784" />
    </clipPath>
  </defs>
  <sodipodi:namedview
     id="base"
     pagecolor="#ffffff"
     bordercolor="#666666"
     borderopacity="1.0"
     inkscape:pageopacity="0.61568627"
     inkscape:pageshadow="2"
     inkscape:zoom="7.9195959"
     inkscape:cx="39.62224"
     inkscape:cy="42.019407"
     inkscape:document-units="mm"
     inkscape:current-layer="layer2"
     showgrid="false"
     fit-margin-top="0"
     fit-margin-left="0"
     fit-margin-right="0"
     fit-margin-bottom="0"
     inkscape:window-width="1920"
     inkscape:window-height="1017"
     inkscape:window-x="1912"
     inkscape:window-y="-8"
     inkscape:window-maximized="1"
     inkscape:pagecheckerboard="true"
     inkscape:snap-bbox="false" />
  <metadata
     id="metadata3839">
    <rdf:RDF>
      <cc:Work
         rdf:about="">
        <dc:format>image/svg+xml</dc:format>
        <dc:type
           rdf:resource="http://purl.org/dc/dcmitype/StillImage" />
        <dc:title></dc:title>
      </cc:Work>
    </rdf:RDF>
  </metadata>
  <g
     inkscape:groupmode="layer"
     id="layer2"
     inkscape:label="Ebene 2"
     style="display:inline"
     transform="translate(0.43430844,0.52592397)">
    <rect
       id="rect3894"
       width="29.658079"
       height="12.510975"
       x="-0.43430844"
       y="-0.52592397"
       style="display:inline;fill:#ffffff;fill-opacity:1;stroke-width:0.3740294" />
  </g>
  <g
     inkscape:label="Ebene 1"
     inkscape:groupmode="layer"
     id="layer1"
     transform="translate(-128.44756,-127.02773)"
     style="display:inline">
    <g
       transform="matrix(0.23624518,0,0,0.23624518,120.40727,108.09833)"
       id="layer1-7"
       inkscape:label="Ebene 1">
      <g
         transform="matrix(0.02555318,0,0,0.02555318,-9.6125862,57.310129)"
         id="g3770">
        <g
           clip-path="url(#clipPath3782)"
           style="fill:#094c8b;stroke:none"
           id="layer101">
          <path
             inkscape:connector-curvature="0"
             d="m 2314,2846 c -49,-23 -94,-69 -94,-98 0,-8 -6,-20 -12,-26 -10,-10 -10,-17 0,-32 6,-11 12,-26 12,-33 0,-36 110,-114 153,-108 10,1 25,-3 33,-10 11,-9 20,-9 37,-1 12,6 45,13 74,16 l 51,6 -2,-50 c -2,-40 -9,-57 -31,-80 -30,-31 -99,-49 -132,-35 -10,4 -27,9 -38,10 -12,2 -37,13 -57,25 -36,21 -37,21 -47,1 -18,-33 -13,-41 42,-65 82,-37 89,-39 137,-38 54,0 83,9 150,46 38,21 54,85 60,242 4,120 9,155 23,177 22,35 22,42 -8,61 -24,15 -25,15 -60,-20 l -36,-35 -35,21 c -33,21 -123,50 -154,50 -8,0 -38,-11 -66,-24 z m 183,-66 c 54,-24 74,-55 72,-114 -2,-44 -4,-46 -38,-55 -30,-7 -116,-9 -168,-2 -6,0 -25,13 -42,27 -45,38 -44,89 4,131 29,26 44,31 83,31 26,0 66,-8 89,-18 z"
             id="path3713" />
          <path
             inkscape:connector-curvature="0"
             d="m 3847,2859 c -51,-12 -86,-31 -122,-67 -36,-36 -75,-110 -75,-144 0,-13 -5,-29 -12,-36 -9,-9 -9,-15 0,-24 7,-7 12,-24 12,-38 0,-38 47,-125 83,-156 47,-39 116,-68 167,-68 51,-1 130,32 173,72 33,31 82,120 78,141 -1,8 3,25 10,38 10,18 10,26 1,35 -7,7 -12,24 -12,38 0,37 -53,139 -81,156 -92,53 -157,69 -222,53 z m 103,-75 c 69,-19 130,-108 130,-190 0,-55 -41,-133 -86,-163 -42,-29 -123,-36 -165,-15 -61,30 -109,114 -109,189 0,37 40,123 68,148 23,21 100,47 122,42 8,-2 26,-7 40,-11 z"
             id="path3715" />
          <path
             inkscape:connector-curvature="0"
             d="m 4335,2849 c -38,-11 -77,-27 -86,-35 -8,-8 -21,-14 -27,-14 -17,0 -15,-14 7,-41 l 19,-23 53,29 c 98,53 226,42 250,-23 21,-55 -22,-93 -136,-118 -91,-21 -152,-52 -166,-86 -28,-68 11,-161 80,-186 14,-6 35,-13 46,-17 28,-11 107,-13 125,-4 8,4 29,14 45,22 79,38 86,44 70,57 -8,7 -15,19 -15,26 0,20 -12,17 -49,-10 -59,-44 -185,-44 -221,-1 -7,8 -12,30 -13,50 -1,44 17,58 100,79 168,43 213,75 213,155 0,124 -133,188 -295,140 z"
             id="path3717" />
          <path
             inkscape:connector-curvature="0"
             d="m 5870,2860 c -46,-8 -77,-26 -90,-51 -15,-28 -14,-658 1,-676 7,-7 24,-13 40,-13 h 29 l 1,313 c 1,171 1,317 0,324 -3,19 36,34 72,28 27,-5 34,-2 43,19 13,27 2,46 -26,46 -9,0 -20,4 -25,8 -6,5 -26,6 -45,2 z"
             id="path3719" />
          <path
             inkscape:connector-curvature="0"
             d="m 6183,2853 c -29,-8 -70,-31 -92,-49 -144,-124 -114,-377 54,-449 89,-39 144,-39 220,2 17,9 41,22 55,29 15,8 36,39 54,76 16,35 33,71 37,80 5,9 6,31 3,48 l -6,30 h -202 c -110,0 -207,4 -215,9 -31,20 34,130 92,155 74,30 174,8 210,-48 14,-20 21,-23 44,-17 40,11 39,33 -4,74 -62,60 -166,86 -250,60 z m 247,-311 c 0,-24 -39,-90 -66,-111 -91,-72 -233,-33 -275,76 -18,48 -19,48 166,48 136,0 175,-3 175,-13 z"
             id="path3721" />
          <path
             inkscape:connector-curvature="0"
             d="m 1782,2498 3,-353 228,-3 227,-2 v 45 45 l -192,2 -193,3 -3,104 c -2,67 1,108 9,117 9,11 46,14 165,14 h 154 v 30 30 h -146 c -81,0 -154,5 -165,10 -17,10 -19,23 -19,160 v 150 h -35 -35 z"
             id="path3723" />
          <path
             inkscape:connector-curvature="0"
             d="m 2774,2837 c -2,-7 -3,-120 -2,-252 l 3,-240 38,-3 c 35,-3 37,-2 37,27 0,41 19,49 44,20 12,-14 37,-31 56,-38 19,-8 40,-17 45,-21 28,-18 164,19 165,45 1,5 10,21 21,34 l 20,24 37,-36 c 70,-68 160,-88 225,-49 44,26 66,59 73,108 3,22 10,48 15,59 5,11 8,90 7,175 l -3,155 h -45 -45 l -2,-175 c 0,-96 -2,-183 -2,-193 -1,-10 -14,-32 -30,-48 -26,-26 -36,-29 -75,-25 -59,5 -108,44 -135,106 -18,42 -21,68 -21,194 v 146 h -35 -35 v -159 c 0,-100 -4,-162 -10,-166 -6,-4 -8,-15 -5,-26 11,-32 -31,-87 -71,-95 -45,-8 -76,0 -114,32 -61,52 -70,85 -70,259 v 155 h -40 c -24,0 -43,-5 -46,-13 z"
             id="path3725" />
          <path
             inkscape:connector-curvature="0"
             d="m 4987,2843 c -4,-3 -7,-156 -7,-338 0,-310 1,-333 19,-349 16,-14 44,-16 242,-14 l 224,3 v 40 40 l -197,3 -198,2 v 115 c 0,136 -18,124 190,128 l 145,2 v 25 25 l -154,3 c -93,1 -160,7 -168,13 -10,9 -13,49 -13,160 v 149 h -38 c -21,0 -42,-3 -45,-7 z"
             id="path3727" />
          <path
             inkscape:connector-curvature="0"
             d="m 5545,2838 c -3,-7 -4,-121 -3,-253 l 3,-240 h 45 45 v 250 250 l -43,3 c -28,2 -44,-1 -47,-10 z"
             id="path3729" />
          <path
             inkscape:connector-curvature="0"
             d="m 5540,2197 c 0,-53 24,-80 67,-75 27,3 28,5 28,58 v 55 l -47,3 -48,3 z"
             id="path3731" />
          <path
             inkscape:connector-curvature="0"
             d="m 3275,1799 c -48,-14 -97,-42 -122,-69 -22,-24 -66,-105 -78,-145 -9,-26 -9,-124 0,-150 33,-101 84,-164 157,-194 29,-12 61,-26 70,-31 22,-12 73,-13 96,-1 9,5 37,15 61,22 45,13 121,75 121,98 0,6 -10,16 -22,20 -18,7 -28,4 -46,-15 -47,-49 -92,-68 -162,-67 -130,2 -215,100 -219,250 0,23 4,45 9,48 6,4 8,10 5,15 -18,30 67,138 130,164 74,31 182,9 234,-48 24,-26 64,-35 75,-17 10,16 -9,51 -34,66 -91,52 -127,65 -185,64 -33,0 -73,-5 -90,-10 z"
             id="path3733" />
          <path
             inkscape:connector-curvature="0"
             d="m 1800,1510 v -290 h 23 c 46,0 47,8 47,302 v 278 h -35 -35 z"
             id="path3735" />
          <path
             inkscape:connector-curvature="0"
             d="m 2050,1511 v -291 h 25 c 24,0 25,3 25,60 0,38 4,60 11,60 6,0 29,-19 49,-43 21,-24 58,-51 82,-61 24,-10 50,-22 59,-26 35,-18 128,9 161,46 10,11 24,36 33,57 8,20 19,37 24,37 4,0 26,-22 48,-48 36,-42 68,-63 138,-87 40,-15 81,-10 124,14 35,19 48,35 70,85 26,59 27,68 30,274 l 3,212 h -42 -41 l 2,-217 c 2,-235 -3,-264 -54,-297 -34,-23 -146,-16 -181,11 -87,69 -106,130 -106,338 v 165 h -25 -25 v -177 c 0,-214 -13,-284 -59,-325 -27,-24 -63,-35 -96,-28 -5,1 -21,3 -35,5 -14,1 -28,3 -32,4 -19,3 -81,69 -100,105 -19,36 -21,59 -22,226 l -1,185 -32,3 -33,3 z"
             id="path3737" />
          <path
             inkscape:connector-curvature="0"
             d="m 1812,1078 c -7,-7 -12,-31 -12,-55 0,-38 3,-43 23,-43 13,0 28,5 35,12 18,18 14,63 -6,81 -22,20 -25,20 -40,5 z"
             id="path3739" />
        </g>
        <g
           clip-path="url(#clipPath3778)"
           style="fill:#4b4b4b;stroke:none"
           id="layer102">
          <path
             inkscape:connector-curvature="0"
             d="m 5378,1844 c -22,-14 -38,-33 -39,-44 -3,-44 -2,-56 5,-80 5,-20 -5,-49 -49,-130 -30,-58 -58,-112 -61,-120 -3,-8 -10,-22 -15,-30 -5,-8 -16,-30 -24,-47 -15,-32 -38,-43 -49,-24 -9,14 -47,1 -86,-29 -38,-29 -49,-29 -135,10 -22,9 -58,23 -80,29 -22,7 -49,16 -60,21 -41,19 -181,68 -210,75 -46,10 -55,23 -50,65 6,49 -29,95 -80,104 -43,8 -67,-4 -95,-49 -30,-48 -20,-85 31,-120 37,-26 41,-27 83,-15 41,11 51,10 113,-14 38,-14 75,-26 84,-26 8,0 19,-4 25,-9 5,-5 27,-14 49,-20 22,-7 49,-17 60,-22 11,-5 66,-26 122,-46 99,-37 103,-40 125,-83 19,-37 30,-46 61,-53 93,-22 163,76 102,143 -12,13 -12,19 0,40 8,14 24,44 35,67 11,22 38,71 60,107 22,36 40,71 40,77 0,21 41,69 53,62 23,-14 62,-8 94,15 l 32,22 98,-47 c 54,-26 150,-71 213,-101 556,-266 514,-242 521,-293 7,-55 45,-89 97,-89 49,0 79,22 93,69 15,52 -6,95 -58,112 -47,16 -72,13 -97,-11 -18,-17 -20,-17 -65,6 -25,13 -95,47 -156,75 -182,86 -299,142 -315,151 -8,4 -26,13 -40,19 -14,5 -64,30 -112,55 -48,24 -93,44 -100,44 -21,1 -64,43 -77,77 -16,39 -51,73 -82,78 -14,2 -40,-7 -61,-21 z m 99,-36 c 20,-26 22,-62 5,-85 -45,-58 -141,-5 -123,67 12,45 87,57 118,18 z m -991,-210 c 2,-3 6,-18 10,-34 4,-24 0,-37 -21,-62 -33,-40 -49,-40 -86,-3 -34,35 -37,63 -8,92 17,17 29,20 61,16 22,-3 41,-7 44,-9 z m 2008,-264 c 9,-8 17,-18 17,-22 8,-48 5,-62 -16,-82 -32,-30 -92,-20 -106,18 -11,28 -5,68 13,89 15,18 73,16 92,-3 z m -1331,-3 c 31,-12 41,-65 19,-98 -21,-33 -93,-33 -115,0 -19,29 -11,73 16,92 25,17 46,19 80,6 z"
             id="path3742" />
        </g>
      </g>
    </g>
  </g>
</svg>
